<svg xmlns="http://www.w3.org/2000/svg" xmlns:xlink="http://www.w3.org/1999/xlink" version="1.1" width="256" height="256" viewBox="0 0 256 256" xml:space="preserve">

<defs>
</defs>
<g style="stroke: none; stroke-width: 0; stroke-dasharray: none; stroke-linecap: butt; stroke-linejoin: miter; stroke-miterlimit: 10; fill: none; fill-rule: nonzero; opacity: 1;" transform="translate(1.4065934065934016 1.4065934065934016) scale(2.81 2.81)" >
	<path d="M 15.492 90 V 70.813 C 7.453 69.85 1.2 62.988 1.2 54.693 V 16.237 C 1.2 7.284 8.483 0 17.436 0 h 55.128 C 81.516 0 88.8 7.284 88.8 16.237 v 38.456 c 0 8.952 -7.284 16.236 -16.236 16.236 H 39.388 L 15.492 90 z M 17.436 7.097 c -5.039 0 -9.139 4.1 -9.139 9.14 v 38.456 c 0 5.039 4.1 9.139 9.139 9.139 h 5.153 v 11.424 l 14.314 -11.424 h 35.661 c 5.039 0 9.139 -4.1 9.139 -9.139 V 16.237 c 0 -5.04 -4.1 -9.14 -9.139 -9.14 H 17.436 z" style="stroke: none; stroke-width: 1; stroke-dasharray: none; stroke-linecap: butt; stroke-linejoin: miter; stroke-miterlimit: 10; fill: rgb(0,0,0); fill-rule: nonzero; opacity: 1;" transform=" matrix(1 0 0 1 0 0) " stroke-linecap="round" />
	<path d="M 63.019 25.022 h -7.274 c -0.669 -3.286 -1.654 -6.306 -2.941 -8.751 C 57.093 17.995 60.672 21.095 63.019 25.022 z" style="stroke: none; stroke-width: 1; stroke-dasharray: none; stroke-linecap: butt; stroke-linejoin: miter; stroke-miterlimit: 10; fill: rgb(0,0,0); fill-rule: nonzero; opacity: 1;" transform=" matrix(1 0 0 1 0 0) " stroke-linecap="round" />
	<path d="M 66 35.75 c 0 2.155 -0.328 4.235 -0.934 6.194 h -8.612 c 0.227 -2.043 0.345 -4.129 0.345 -6.194 c 0 -2.065 -0.118 -4.15 -0.345 -6.194 h 8.612 C 65.671 31.515 66 33.595 66 35.75 z" style="stroke: none; stroke-width: 1; stroke-dasharray: none; stroke-linecap: butt; stroke-linejoin: miter; stroke-miterlimit: 10; fill: rgb(0,0,0); fill-rule: nonzero; opacity: 1;" transform=" matrix(1 0 0 1 0 0) " stroke-linecap="round" />
	<path d="M 45 56.75 c -2.017 0 -4.653 -3.801 -6.131 -10.271 h 12.262 C 49.653 52.949 47.017 56.75 45 56.75 z" style="stroke: none; stroke-width: 1; stroke-dasharray: none; stroke-linecap: butt; stroke-linejoin: miter; stroke-miterlimit: 10; fill: rgb(0,0,0); fill-rule: nonzero; opacity: 1;" transform=" matrix(1 0 0 1 0 0) " stroke-linecap="round" />
	<path d="M 38.099 41.944 c -0.227 -1.918 -0.363 -3.981 -0.363 -6.194 c 0 -2.212 0.135 -4.276 0.363 -6.194 H 51.9 c 0.227 1.918 0.363 3.981 0.363 6.194 c 0 2.212 -0.135 4.276 -0.363 6.194 H 38.099 z" style="stroke: none; stroke-width: 1; stroke-dasharray: none; stroke-linecap: butt; stroke-linejoin: miter; stroke-miterlimit: 10; fill: rgb(0,0,0); fill-rule: nonzero; opacity: 1;" transform=" matrix(1 0 0 1 0 0) " stroke-linecap="round" />
	<path d="M 24 35.75 c 0 -2.155 0.328 -4.235 0.934 -6.194 h 8.612 c -0.227 2.043 -0.345 4.129 -0.345 6.194 c 0 2.065 0.118 4.15 0.345 6.194 h -8.612 C 24.328 39.985 24 37.905 24 35.75 z" style="stroke: none; stroke-width: 1; stroke-dasharray: none; stroke-linecap: butt; stroke-linejoin: miter; stroke-miterlimit: 10; fill: rgb(0,0,0); fill-rule: nonzero; opacity: 1;" transform=" matrix(1 0 0 1 0 0) " stroke-linecap="round" />
	<path d="M 45 14.75 c 2.017 0 4.653 3.801 6.131 10.272 H 38.869 C 40.347 18.551 42.983 14.75 45 14.75 z" style="stroke: none; stroke-width: 1; stroke-dasharray: none; stroke-linecap: butt; stroke-linejoin: miter; stroke-miterlimit: 10; fill: rgb(0,0,0); fill-rule: nonzero; opacity: 1;" transform=" matrix(1 0 0 1 0 0) " stroke-linecap="round" />
	<path d="M 37.195 16.27 c -1.287 2.445 -2.272 5.465 -2.941 8.751 H 26.98 C 29.327 21.095 32.907 17.995 37.195 16.27 z" style="stroke: none; stroke-width: 1; stroke-dasharray: none; stroke-linecap: butt; stroke-linejoin: miter; stroke-miterlimit: 10; fill: rgb(0,0,0); fill-rule: nonzero; opacity: 1;" transform=" matrix(1 0 0 1 0 0) " stroke-linecap="round" />
	<path d="M 26.98 46.479 h 7.274 c 0.669 3.286 1.654 6.306 2.941 8.751 C 32.907 53.505 29.327 50.405 26.98 46.479 z" style="stroke: none; stroke-width: 1; stroke-dasharray: none; stroke-linecap: butt; stroke-linejoin: miter; stroke-miterlimit: 10; fill: rgb(0,0,0); fill-rule: nonzero; opacity: 1;" transform=" matrix(1 0 0 1 0 0) " stroke-linecap="round" />
	<path d="M 52.804 55.23 c 1.287 -2.445 2.272 -5.465 2.941 -8.751 h 7.274 C 60.672 50.405 57.092 53.505 52.804 55.23 z" style="stroke: none; stroke-width: 1; stroke-dasharray: none; stroke-linecap: butt; stroke-linejoin: miter; stroke-miterlimit: 10; fill: rgb(0,0,0); fill-rule: nonzero; opacity: 1;" transform=" matrix(1 0 0 1 0 0) " stroke-linecap="round" />
</g>
</svg>